<svg width="528" height="314" viewBox="0 0 528 314" fill="none" xmlns="http://www.w3.org/2000/svg">
<rect x="0.5" y="0.5" width="527" height="313" rx="13.641" fill="#000D13" stroke="white"/>
<line x1="4.37114e-08" y1="57.5" x2="527" y2="57.5" stroke="white"/>
<path d="M26.6368 17.6216H21V23.2584V28.8951V34.5319H26.6368V28.8951V23.2584H32.2735V17.6216H26.6368Z" fill="white"/>
<path d="M37.9102 23.2577V28.8944V34.5312H32.2734V40.1684H37.9102H43.5475V34.5312V28.8944V23.2577H37.9102Z" fill="white"/>
<path d="M37.9141 28.8944C37.9141 28.8944 32.2774 28.8125 32.2774 23.2577C32.2774 28.813 26.6406 28.8944 26.6406 28.8944C26.6406 28.8944 32.2774 28.9763 32.2774 34.5312C32.2774 28.9763 37.9141 28.8944 37.9141 28.8944Z" fill="white"/>
<path d="M54.1975 32.5499V37.8306C54.1975 39.2277 54.8132 39.5356 57.0866 39.7014V40.4591H49.4141V39.7487C51.119 39.5356 51.4033 39.3935 51.4033 38.0674V26.2272C51.4033 24.9011 51.119 24.759 49.4141 24.5459V23.8355H61.6569L61.7516 28.0269H61.207C60.2359 25.4457 59.3598 24.688 57.6074 24.688H54.1975V31.65H57.1813C58.2232 31.65 58.5547 30.8922 58.7916 29.4241H59.502V34.7758H58.7916C58.5547 33.3076 58.2232 32.5499 57.1813 32.5499H54.1975ZM66.586 39.0857C67.4149 39.0857 68.0306 38.7068 68.8594 38.0437V33.5918L66.373 34.6101C65.2599 35.0363 64.6206 35.652 64.6206 36.9307C64.6206 38.2095 65.2599 39.0857 66.586 39.0857ZM71.5117 31.5553V37.8306C71.5117 38.7778 71.701 39.2751 72.3641 39.2751C72.7429 39.2751 73.0744 39.1567 73.3824 39.0146L73.5244 39.4409C72.9087 40.2697 72.0563 40.696 71.0617 40.696C69.8302 40.696 69.0963 39.8908 68.9068 38.5884C68.1017 39.5593 66.8229 40.6723 65.1653 40.6723C63.2707 40.6723 62.063 39.4882 62.063 37.6648C62.063 35.652 63.5314 34.8232 65.3784 34.1365L68.8594 32.8577V31.058C68.8594 29.5661 68.3148 28.4768 66.894 28.4768C65.6388 28.4768 65.1179 29.353 65.1179 30.537C65.1179 30.9633 65.1891 31.3659 65.3072 31.8631L63.7445 32.0763C63.1288 31.8868 62.7499 31.4132 62.7499 30.7028C62.7499 28.832 64.6918 27.8138 67.178 27.8138C70.0198 27.8138 71.5117 28.9505 71.5117 31.5553ZM78.1151 27.8138V38.6594C78.1151 39.5356 78.4939 39.7014 79.6781 39.7724V40.4591H73.9V39.7724C75.0839 39.7014 75.4628 39.5356 75.4628 38.6594V30.2055L73.9712 29.3767V29.0452L77.7362 27.8138H78.1151ZM76.7181 26.1325C75.747 26.1325 75.0366 25.3747 75.0366 24.4748C75.0366 23.5513 75.747 22.7935 76.7181 22.7935C77.6889 22.7935 78.423 23.5513 78.423 24.4748C78.423 25.3747 77.6889 26.1325 76.7181 26.1325ZM84.7521 31.8395V38.5647C84.7521 39.5119 85.2968 39.6777 86.8124 39.7724V40.4591H80.5371V39.7724C81.721 39.7014 82.0999 39.5356 82.0999 38.6594V30.2055L80.608 29.3767V29.0452L84.4444 27.8138H84.8468L84.7521 31.2238C85.9836 28.7373 86.5991 27.8138 87.9728 27.8138C88.4225 27.8138 88.754 27.9795 88.9436 28.1927V30.3239H88.5409C87.0964 30.3239 86.0309 30.4186 84.7521 31.8395ZM90.6431 24.238L89.1512 23.4329V23.0777L92.8927 21.9174H93.2951V29.9687C94.1477 28.7373 95.4265 27.8138 97.2735 27.8138C100.21 27.8138 101.962 29.9924 101.962 33.5208C101.962 38.0201 99.1916 40.696 95.7581 40.696C93.7216 40.696 91.8743 40.0802 90.6431 39.0146V24.238ZM95.7581 39.9382C97.9366 39.9382 99.2865 37.5701 99.2865 34.5627C99.2865 31.7921 98.2681 29.4477 95.7816 29.4477C94.8343 29.4477 93.8873 29.8977 93.2951 30.537V37.0728C93.2951 39.062 94.1713 39.9382 95.7581 39.9382ZM107.183 21.9174V38.6594C107.183 39.5356 107.562 39.7014 108.746 39.7724V40.4591H102.968V39.7724C104.152 39.7014 104.531 39.5356 104.531 38.6594V24.238L103.039 23.4329V23.0777L106.78 21.9174H107.183ZM115.526 39.9145C117.468 39.9145 118.486 37.8069 118.486 34.6574C118.486 31.3422 117.539 28.5952 115.407 28.5952C113.466 28.5952 112.471 30.7028 112.471 33.8523C112.471 37.1439 113.418 39.9145 115.526 39.9145ZM115.407 40.696C111.95 40.696 109.653 38.2332 109.653 34.539C109.653 30.4897 112.21 27.8138 115.526 27.8138C118.983 27.8138 121.28 30.3002 121.28 33.947C121.28 38.0201 118.723 40.696 115.407 40.696ZM124.948 33.4971C124.948 36.6229 126.416 38.7305 128.831 38.7305C130.37 38.7305 131.436 38.0437 132.218 36.8597L132.573 37.0255C131.839 39.4172 130.205 40.696 127.931 40.696C124.805 40.696 122.603 38.3042 122.603 34.6811C122.603 30.7502 124.9 27.8138 128.523 27.8138C130.773 27.8138 132.241 28.761 132.241 30.4186C132.241 31.1054 131.886 31.6737 131.412 31.9342H129.85C129.897 31.6263 129.944 31.2948 129.944 30.8686C129.944 29.6845 129.542 28.6189 128.097 28.6189C126.132 28.6189 124.948 30.7502 124.948 33.4971ZM137.761 33.7102L141.526 30.2766C141.905 29.945 142.165 29.6609 142.165 29.353C142.165 28.9031 141.715 28.8557 140.602 28.7373V28.0506H145.457V28.7373C144.557 28.9268 144.107 29.1162 143.562 29.6135L140.152 32.7393L146.001 39.9619V40.4591H143.112L137.761 33.7102ZM134.848 38.6594V24.238L133.356 23.4329V23.0777L137.098 21.9174H137.5V38.6594C137.5 39.5356 137.879 39.7014 139.063 39.7724V40.4591H133.285V39.7724C134.469 39.7014 134.848 39.5356 134.848 38.6594Z" fill="white"/>
<path d="M338.47 38V28.2H339.618L344.014 35.606H343.398L347.738 28.2H348.886L348.9 38H347.556L347.542 30.314H347.864L344 36.81H343.356L339.464 30.314H339.814V38H338.47ZM351.967 40.8C351.612 40.8 351.267 40.7393 350.931 40.618C350.595 40.506 350.306 40.338 350.063 40.114L350.637 39.106C350.824 39.2833 351.029 39.4187 351.253 39.512C351.477 39.6053 351.715 39.652 351.967 39.652C352.294 39.652 352.564 39.568 352.779 39.4C352.994 39.232 353.194 38.9333 353.381 38.504L353.843 37.482L353.983 37.314L356.895 30.58H358.211L354.613 38.742C354.398 39.2647 354.156 39.6753 353.885 39.974C353.624 40.2727 353.334 40.4827 353.017 40.604C352.7 40.7347 352.35 40.8 351.967 40.8ZM353.731 38.238L350.343 30.58H351.743L354.627 37.188L353.731 38.238ZM362.494 38.084C361.738 38.084 361.062 37.9207 360.464 37.594C359.876 37.2673 359.414 36.8193 359.078 36.25C358.742 35.6807 358.574 35.0273 358.574 34.29C358.574 33.5527 358.742 32.8993 359.078 32.33C359.414 31.7607 359.876 31.3173 360.464 31C361.062 30.6733 361.738 30.51 362.494 30.51C363.166 30.51 363.764 30.6453 364.286 30.916C364.818 31.1773 365.229 31.5693 365.518 32.092L364.496 32.75C364.254 32.386 363.955 32.12 363.6 31.952C363.255 31.7747 362.882 31.686 362.48 31.686C361.995 31.686 361.561 31.7933 361.178 32.008C360.796 32.2227 360.492 32.526 360.268 32.918C360.044 33.3007 359.932 33.758 359.932 34.29C359.932 34.822 360.044 35.284 360.268 35.676C360.492 36.068 360.796 36.3713 361.178 36.586C361.561 36.8007 361.995 36.908 362.48 36.908C362.882 36.908 363.255 36.824 363.6 36.656C363.955 36.4787 364.254 36.208 364.496 35.844L365.518 36.488C365.229 37.0013 364.818 37.398 364.286 37.678C363.764 37.9487 363.166 38.084 362.494 38.084ZM370.453 38.084C369.66 38.084 368.96 37.9207 368.353 37.594C367.756 37.2673 367.289 36.8193 366.953 36.25C366.626 35.6807 366.463 35.0273 366.463 34.29C366.463 33.5527 366.622 32.8993 366.939 32.33C367.266 31.7607 367.709 31.3173 368.269 31C368.838 30.6733 369.478 30.51 370.187 30.51C370.906 30.51 371.54 30.6687 372.091 30.986C372.642 31.3033 373.071 31.7513 373.379 32.33C373.696 32.8993 373.855 33.5667 373.855 34.332C373.855 34.388 373.85 34.4533 373.841 34.528C373.841 34.6027 373.836 34.6727 373.827 34.738H367.513V33.772H373.127L372.581 34.108C372.59 33.632 372.492 33.2073 372.287 32.834C372.082 32.4607 371.797 32.1713 371.433 31.966C371.078 31.7513 370.663 31.644 370.187 31.644C369.72 31.644 369.305 31.7513 368.941 31.966C368.577 32.1713 368.292 32.4653 368.087 32.848C367.882 33.2213 367.779 33.6507 367.779 34.136V34.36C367.779 34.8547 367.891 35.298 368.115 35.69C368.348 36.0727 368.67 36.3713 369.081 36.586C369.492 36.8007 369.963 36.908 370.495 36.908C370.934 36.908 371.33 36.8333 371.685 36.684C372.049 36.5347 372.366 36.3107 372.637 36.012L373.379 36.88C373.043 37.272 372.623 37.5707 372.119 37.776C371.624 37.9813 371.069 38.084 370.453 38.084ZM375.721 38V27.612H377.065V38H375.721ZM379.631 38V30.58H380.975V38H379.631ZM380.303 29.152C380.042 29.152 379.823 29.068 379.645 28.9C379.477 28.732 379.393 28.5267 379.393 28.284C379.393 28.032 379.477 27.822 379.645 27.654C379.823 27.486 380.042 27.402 380.303 27.402C380.565 27.402 380.779 27.486 380.947 27.654C381.125 27.8127 381.213 28.0133 381.213 28.256C381.213 28.508 381.129 28.7227 380.961 28.9C380.793 29.068 380.574 29.152 380.303 29.152ZM386.664 38.084C386.029 38.084 385.469 37.9673 384.984 37.734C384.508 37.5007 384.134 37.146 383.864 36.67C383.602 36.1847 383.472 35.578 383.472 34.85V30.58H384.816V34.696C384.816 35.424 384.988 35.97 385.334 36.334C385.688 36.698 386.183 36.88 386.818 36.88C387.284 36.88 387.69 36.7867 388.036 36.6C388.381 36.404 388.647 36.124 388.834 35.76C389.02 35.3867 389.114 34.9387 389.114 34.416V30.58H390.458V38H389.184V35.998L389.394 36.53C389.151 37.0247 388.787 37.4073 388.302 37.678C387.816 37.9487 387.27 38.084 386.664 38.084ZM393.016 38V30.58H394.304V32.554L394.094 32.05C394.328 31.5647 394.687 31.1867 395.172 30.916C395.658 30.6453 396.222 30.51 396.866 30.51C397.576 30.51 398.187 30.6873 398.7 31.042C399.214 31.3873 399.55 31.9147 399.708 32.624L399.162 32.4C399.386 31.8307 399.778 31.3733 400.338 31.028C400.898 30.6827 401.552 30.51 402.298 30.51C402.896 30.51 403.423 30.6267 403.88 30.86C404.338 31.0933 404.692 31.448 404.944 31.924C405.206 32.4 405.336 33.002 405.336 33.73V38H403.992V33.884C403.992 33.1653 403.824 32.624 403.488 32.26C403.152 31.896 402.681 31.714 402.074 31.714C401.626 31.714 401.234 31.8073 400.898 31.994C400.562 32.1807 400.301 32.456 400.114 32.82C399.937 33.184 399.848 33.6367 399.848 34.178V38H398.504V33.884C398.504 33.1653 398.336 32.624 398 32.26C397.674 31.896 397.202 31.714 396.586 31.714C396.148 31.714 395.76 31.8073 395.424 31.994C395.088 32.1807 394.827 32.456 394.64 32.82C394.454 33.184 394.36 33.6367 394.36 34.178V38H393.016ZM411.765 38V28.2H413.165V38H411.765ZM418.969 38.084C418.25 38.084 417.606 37.9253 417.037 37.608C416.477 37.2907 416.034 36.8473 415.707 36.278C415.38 35.7087 415.217 35.046 415.217 34.29C415.217 33.534 415.38 32.876 415.707 32.316C416.034 31.7467 416.477 31.3033 417.037 30.986C417.606 30.6687 418.25 30.51 418.969 30.51C419.594 30.51 420.159 30.65 420.663 30.93C421.167 31.21 421.568 31.63 421.867 32.19C422.175 32.75 422.329 33.45 422.329 34.29C422.329 35.13 422.18 35.83 421.881 36.39C421.592 36.95 421.195 37.3747 420.691 37.664C420.187 37.944 419.613 38.084 418.969 38.084ZM419.081 36.908C419.548 36.908 419.968 36.8007 420.341 36.586C420.724 36.3713 421.022 36.068 421.237 35.676C421.461 35.2747 421.573 34.8127 421.573 34.29C421.573 33.758 421.461 33.3007 421.237 32.918C421.022 32.526 420.724 32.2227 420.341 32.008C419.968 31.7933 419.548 31.686 419.081 31.686C418.605 31.686 418.18 31.7933 417.807 32.008C417.434 32.2227 417.135 32.526 416.911 32.918C416.687 33.3007 416.575 33.758 416.575 34.29C416.575 34.8127 416.687 35.2747 416.911 35.676C417.135 36.068 417.434 36.3713 417.807 36.586C418.18 36.8007 418.605 36.908 419.081 36.908ZM421.615 38V35.998L421.699 34.276L421.559 32.554V27.612H422.903V38H421.615ZM428.75 38.084C427.957 38.084 427.257 37.9207 426.65 37.594C426.053 37.2673 425.586 36.8193 425.25 36.25C424.923 35.6807 424.76 35.0273 424.76 34.29C424.76 33.5527 424.919 32.8993 425.236 32.33C425.563 31.7607 426.006 31.3173 426.566 31C427.135 30.6733 427.775 30.51 428.484 30.51C429.203 30.51 429.837 30.6687 430.388 30.986C430.939 31.3033 431.368 31.7513 431.676 32.33C431.993 32.8993 432.152 33.5667 432.152 34.332C432.152 34.388 432.147 34.4533 432.138 34.528C432.138 34.6027 432.133 34.6727 432.124 34.738H425.81V33.772H431.424L430.878 34.108C430.887 33.632 430.789 33.2073 430.584 32.834C430.379 32.4607 430.094 32.1713 429.73 31.966C429.375 31.7513 428.96 31.644 428.484 31.644C428.017 31.644 427.602 31.7513 427.238 31.966C426.874 32.1713 426.589 32.4653 426.384 32.848C426.179 33.2213 426.076 33.6507 426.076 34.136V34.36C426.076 34.8547 426.188 35.298 426.412 35.69C426.645 36.0727 426.967 36.3713 427.378 36.586C427.789 36.8007 428.26 36.908 428.792 36.908C429.231 36.908 429.627 36.8333 429.982 36.684C430.346 36.5347 430.663 36.3107 430.934 36.012L431.676 36.88C431.34 37.272 430.92 37.5707 430.416 37.776C429.921 37.9813 429.366 38.084 428.75 38.084ZM434.018 38V30.58H435.306V32.582L435.096 32.05C435.339 31.5647 435.712 31.1867 436.216 30.916C436.72 30.6453 437.308 30.51 437.98 30.51C438.587 30.51 439.119 30.6267 439.576 30.86C440.043 31.0933 440.407 31.448 440.668 31.924C440.929 32.4 441.06 33.002 441.06 33.73V38H439.716V33.884C439.716 33.1653 439.539 32.624 439.184 32.26C438.839 31.896 438.349 31.714 437.714 31.714C437.238 31.714 436.823 31.8073 436.468 31.994C436.113 32.1807 435.838 32.456 435.642 32.82C435.455 33.184 435.362 33.6367 435.362 34.178V38H434.018ZM446.095 38.084C445.349 38.084 444.77 37.8833 444.359 37.482C443.949 37.0807 443.743 36.5067 443.743 35.76V28.956H445.087V35.704C445.087 36.1053 445.185 36.4133 445.381 36.628C445.587 36.8427 445.876 36.95 446.249 36.95C446.669 36.95 447.019 36.8333 447.299 36.6L447.719 37.566C447.514 37.7433 447.267 37.874 446.977 37.958C446.697 38.042 446.403 38.084 446.095 38.084ZM442.483 31.686V30.58H447.215V31.686H442.483ZM449.344 38V30.58H450.688V38H449.344ZM450.016 29.152C449.755 29.152 449.536 29.068 449.358 28.9C449.19 28.732 449.106 28.5267 449.106 28.284C449.106 28.032 449.19 27.822 449.358 27.654C449.536 27.486 449.755 27.402 450.016 27.402C450.278 27.402 450.492 27.486 450.66 27.654C450.838 27.8127 450.926 28.0133 450.926 28.256C450.926 28.508 450.842 28.7227 450.674 28.9C450.506 29.068 450.287 29.152 450.016 29.152ZM455.761 38.084C455.015 38.084 454.436 37.8833 454.025 37.482C453.615 37.0807 453.409 36.5067 453.409 35.76V28.956H454.753V35.704C454.753 36.1053 454.851 36.4133 455.047 36.628C455.253 36.8427 455.542 36.95 455.915 36.95C456.335 36.95 456.685 36.8333 456.965 36.6L457.385 37.566C457.18 37.7433 456.933 37.874 456.643 37.958C456.363 38.042 456.069 38.084 455.761 38.084ZM452.149 31.686V30.58H456.881V31.686H452.149ZM458.799 40.8C458.444 40.8 458.099 40.7393 457.763 40.618C457.427 40.506 457.138 40.338 456.895 40.114L457.469 39.106C457.656 39.2833 457.861 39.4187 458.085 39.512C458.309 39.6053 458.547 39.652 458.799 39.652C459.126 39.652 459.396 39.568 459.611 39.4C459.826 39.232 460.026 38.9333 460.213 38.504L460.675 37.482L460.815 37.314L463.727 30.58H465.043L461.445 38.742C461.23 39.2647 460.988 39.6753 460.717 39.974C460.456 40.2727 460.166 40.4827 459.849 40.604C459.532 40.7347 459.182 40.8 458.799 40.8ZM460.563 38.238L457.175 30.58H458.575L461.459 37.188L460.563 38.238ZM474.635 38.112C473.889 38.112 473.198 37.9907 472.563 37.748C471.938 37.496 471.392 37.146 470.925 36.698C470.468 36.2407 470.109 35.7087 469.847 35.102C469.586 34.4953 469.455 33.828 469.455 33.1C469.455 32.372 469.586 31.7047 469.847 31.098C470.109 30.4913 470.473 29.964 470.939 29.516C471.406 29.0587 471.952 28.7087 472.577 28.466C473.212 28.214 473.903 28.088 474.649 28.088C475.405 28.088 476.101 28.2187 476.735 28.48C477.379 28.732 477.925 29.11 478.373 29.614L477.463 30.496C477.09 30.104 476.67 29.8147 476.203 29.628C475.737 29.432 475.237 29.334 474.705 29.334C474.155 29.334 473.641 29.4273 473.165 29.614C472.699 29.8007 472.293 30.062 471.947 30.398C471.602 30.734 471.331 31.1353 471.135 31.602C470.949 32.0593 470.855 32.5587 470.855 33.1C470.855 33.6413 470.949 34.1453 471.135 34.612C471.331 35.0693 471.602 35.466 471.947 35.802C472.293 36.138 472.699 36.3993 473.165 36.586C473.641 36.7727 474.155 36.866 474.705 36.866C475.237 36.866 475.737 36.7727 476.203 36.586C476.67 36.39 477.09 36.0913 477.463 35.69L478.373 36.572C477.925 37.076 477.379 37.4587 476.735 37.72C476.101 37.9813 475.401 38.112 474.635 38.112ZM484.548 38V36.432L484.478 36.138V33.464C484.478 32.8947 484.31 32.456 483.974 32.148C483.647 31.8307 483.153 31.672 482.49 31.672C482.051 31.672 481.622 31.7467 481.202 31.896C480.782 32.036 480.427 32.2273 480.138 32.47L479.578 31.462C479.961 31.154 480.418 30.9207 480.95 30.762C481.491 30.594 482.056 30.51 482.644 30.51C483.661 30.51 484.445 30.7573 484.996 31.252C485.547 31.7467 485.822 32.5027 485.822 33.52V38H484.548ZM482.112 38.084C481.561 38.084 481.076 37.9907 480.656 37.804C480.245 37.6173 479.928 37.3607 479.704 37.034C479.48 36.698 479.368 36.32 479.368 35.9C479.368 35.4987 479.461 35.1347 479.648 34.808C479.844 34.4813 480.157 34.22 480.586 34.024C481.025 33.828 481.613 33.73 482.35 33.73H484.702V34.696H482.406C481.734 34.696 481.281 34.808 481.048 35.032C480.815 35.256 480.698 35.5267 480.698 35.844C480.698 36.208 480.843 36.502 481.132 36.726C481.421 36.9407 481.823 37.048 482.336 37.048C482.84 37.048 483.279 36.936 483.652 36.712C484.035 36.488 484.31 36.1613 484.478 35.732L484.744 36.656C484.567 37.0947 484.254 37.4447 483.806 37.706C483.358 37.958 482.793 38.084 482.112 38.084ZM488.309 38V30.58H489.597V32.596L489.471 32.092C489.676 31.5787 490.022 31.1867 490.507 30.916C490.992 30.6453 491.59 30.51 492.299 30.51V31.812C492.243 31.8027 492.187 31.798 492.131 31.798C492.084 31.798 492.038 31.798 491.991 31.798C491.272 31.798 490.703 32.0127 490.283 32.442C489.863 32.8713 489.653 33.492 489.653 34.304V38H488.309ZM496.953 38.084C496.235 38.084 495.591 37.9253 495.021 37.608C494.461 37.2907 494.018 36.8473 493.691 36.278C493.365 35.7087 493.201 35.046 493.201 34.29C493.201 33.534 493.365 32.876 493.691 32.316C494.018 31.7467 494.461 31.3033 495.021 30.986C495.591 30.6687 496.235 30.51 496.953 30.51C497.579 30.51 498.143 30.65 498.647 30.93C499.151 31.21 499.553 31.63 499.851 32.19C500.159 32.75 500.313 33.45 500.313 34.29C500.313 35.13 500.164 35.83 499.865 36.39C499.576 36.95 499.179 37.3747 498.675 37.664C498.171 37.944 497.597 38.084 496.953 38.084ZM497.065 36.908C497.532 36.908 497.952 36.8007 498.325 36.586C498.708 36.3713 499.007 36.068 499.221 35.676C499.445 35.2747 499.557 34.8127 499.557 34.29C499.557 33.758 499.445 33.3007 499.221 32.918C499.007 32.526 498.708 32.2227 498.325 32.008C497.952 31.7933 497.532 31.686 497.065 31.686C496.589 31.686 496.165 31.7933 495.791 32.008C495.418 32.2227 495.119 32.526 494.895 32.918C494.671 33.3007 494.559 33.758 494.559 34.29C494.559 34.8127 494.671 35.2747 494.895 35.676C495.119 36.068 495.418 36.3713 495.791 36.586C496.165 36.8007 496.589 36.908 497.065 36.908ZM499.599 38V35.998L499.683 34.276L499.543 32.554V27.612H500.887V38H499.599Z" fill="white"/>
</svg>
